<svg width="32" height="32" viewBox="0 0 32 32" fill="none" xmlns="http://www.w3.org/2000/svg">
  <path d="M16 28C16 28 3 17 3 10C3 7.61305 3.94821 5.32387 5.63604 3.63604C7.32387 1.94821 9.61305 1 12 1C13.5913 1 15.1174 1.63214 16.2426 2.75736C17.3679 3.88258 18 5.4087 18 7C18 5.4087 18.6321 3.88258 19.7574 2.75736C20.8826 1.63214 22.4087 1 24 1C26.3869 1 28.6761 1.94821 30.364 3.63604C32.0518 5.32387 33 7.61305 33 10C33 17 20 28 16 28Z" fill="#EF4444" stroke="#DC2626" stroke-width="2" stroke-linejoin="round"/>
</svg>
